<svg xmlns="http://www.w3.org/2000/svg" width="42.439" height="56" viewBox="0 0 42.439 56">
  <g id="chemistry" transform="translate(-6.57 -1)">
    <path id="Tracé_370" d="M42.924,55.043H12.655a6.087,6.087,0,0,1-5.028-9.515L20.485,26.667V10H22.92V27.043a1.217,1.217,0,0,1-.212.685L9.638,46.9a3.652,3.652,0,0,0,3.017,5.708H42.924A3.652,3.652,0,0,0,45.941,46.9L32.869,27.729a1.217,1.217,0,0,1-.211-.685V10h2.435V26.667L47.952,45.528a6.087,6.087,0,0,1-5.028,9.515Z" transform="translate(0 1.957)" fill="#333"/>
    <rect id="Rectangle_1510" width="29.217" height="8.522" rx="1" transform="translate(13.181 1)" fill="#333"/>
    <circle id="Ellipse_33" cx="1.826" cy="1.826" r="1.826" transform="translate(26.572 30.217)" fill="#333"/>
    <path id="Tracé_371" d="M43.06,43.707,34.4,31H19.443L10.78,43.707a1.217,1.217,0,0,0,1.006,1.9H42.054a1.217,1.217,0,0,0,1.006-1.9ZM23.268,40.739A2.435,2.435,0,1,1,25.7,38.3,2.435,2.435,0,0,1,23.268,40.739Z" transform="translate(0.869 6.522)" fill="#333"/>
  </g>
</svg>
