<svg id="Calque_1" xmlns="http://www.w3.org/2000/svg" viewBox="0 0 183.13 95.18">
    <defs><style>.cls-1{fill:#ffffff;}</style></defs>
    <path class="cls-1" d="M53.72,33.38h-13.75v-4.22c0-1.97-.18-3.22-.53-3.76-.35-.54-.94-.81-1.76-.81-.89,0-1.56,.36-2.02,1.09-.46,.73-.69,1.83-.69,3.31,0,1.9,.26,3.33,.77,4.29,.49,.96,1.88,2.12,4.18,3.48,6.59,3.91,10.74,7.12,12.45,9.63,1.71,2.51,2.57,6.55,2.57,12.13,0,4.05-.47,7.04-1.42,8.96s-2.78,3.53-5.5,4.83c-2.72,1.3-5.88,1.95-9.49,1.95-3.96,0-7.34-.75-10.14-2.25-2.8-1.5-4.64-3.41-5.5-5.73-.87-2.32-1.3-5.61-1.3-9.88v-3.73h13.75v6.93c0,2.13,.19,3.5,.58,4.11s1.07,.91,2.06,.91,1.72-.39,2.2-1.16c.48-.77,.72-1.92,.72-3.45,0-3.35-.46-5.54-1.37-6.57-.94-1.03-3.25-2.75-6.93-5.17-3.68-2.44-6.12-4.21-7.31-5.31-1.2-1.1-2.19-2.62-2.97-4.57-.79-1.95-1.18-4.43-1.18-7.45,0-4.36,.56-7.55,1.67-9.56,1.11-2.02,2.91-3.59,5.4-4.73,2.48-1.14,5.48-1.71,9-1.71,3.84,0,7.12,.62,9.83,1.86,2.71,1.24,4.5,2.81,5.38,4.69,.88,1.89,1.32,5.09,1.32,9.62v2.25Z"/>
    <path class="cls-1" d="M85.18,16.15l8.46,56.92h-15.13l-.79-10.23h-5.29l-.89,10.23h-15.3l7.55-56.92h21.39Zm-7.84,36.6c-.75-6.45-1.5-14.42-2.25-23.91-1.51,10.9-2.46,18.87-2.84,23.91h5.09Z"/>
    <path class="cls-1" d="M141.82,16.15v56.92h-12.94l-.02-38.43-5.15,38.43h-9.18l-5.43-37.55-.02,37.55h-12.94V16.15h19.15c.57,3.42,1.15,7.46,1.76,12.1l2.1,14.48,3.4-26.58h19.26Z"/>
    <path class="cls-1" d="M161.97,16.15v7.42h-14.62v-7.42h14.62Zm0,10.27v46.65h-14.62V26.42h14.62Z"/>
</svg>
