<svg xmlns="http://www.w3.org/2000/svg" width="46" height="46" viewBox="0 0 46 46">
  <g id="n-edit" transform="translate(-3 -1)">
    <path id="Tracé_372" d="M41.682,27.909a1.045,1.045,0,0,0-1.045,1.045V44.636H5.091V9.091H20.773a1.045,1.045,0,0,0,0-2.091H4.045A1.045,1.045,0,0,0,3,8.045V45.682a1.045,1.045,0,0,0,1.045,1.045H41.682a1.045,1.045,0,0,0,1.045-1.045V28.955A1.045,1.045,0,0,0,41.682,27.909Z" transform="translate(0 0.273)" fill="#333"/>
    <path id="Tracé_373" d="M40.921,1.306a1.045,1.045,0,0,0-1.478,0l-23,23a1.045,1.045,0,0,0-.262.439L13.044,35.2a1.045,1.045,0,0,0,1.3,1.3L24.8,33.365a1.045,1.045,0,0,0,.439-.262l23-23a1.045,1.045,0,0,0,0-1.478Z" transform="translate(0.455)" fill="#333"/>
  </g>
</svg>
