<svg xmlns="http://www.w3.org/2000/svg" width="65.582" height="77.487" viewBox="0 0 65.582 77.487">
  <g id="sonde" transform="translate(-4.159 -14.287)">
    <path id="Tracé_359" d="M20.086,28.43c.65-.392,1.8-1.473,1.36-2.743a.8.8,0,0,0-.147-.248l-3.439-4.11" fill="none" stroke="#000" stroke-linecap="round" stroke-width="2"/>
    <path id="Tracé_360" d="M11.712,35.93h0a.837.837,0,0,1,.245-.738l1.68-1.621M21.2,27.627l2.2-1.59a.86.86,0,0,1,1.006,0h0" fill="none" stroke="#000" stroke-linecap="round" stroke-width="1"/>
    <path id="Tracé_361" d="M15.492,30.78l-.8-1.113,2.594-2.1m.956.99-.8-1.114-.153.124m0,0-1.155-1.6L14.7,27m.041,2.4-1.154-1.6L14.7,27m0,0L5.565,15.693m9.883,15.36.345.478,3.065-2.456-.345-.477-3.065,2.456Zm.256,1.025L19.45,28.89" fill="none" stroke="#000" stroke-linecap="round" stroke-width="2"/>
    <path id="Tracé_362" d="M11.712,35.93,39.958,70.687l12.42-9.936L24.52,26.2l-.548-.088-11.827,9.75-.433.071Z" fill="#333" stroke="#b6b6b6" stroke-linecap="round" stroke-width="1"/>
    <path id="Tracé_363" d="M18.247,39.619,37.709,63.6l8.451-6.771L26.965,32.989l-.375-.063-8.047,6.646Z" fill="#fff" stroke="#000" stroke-linecap="round" stroke-width="1"/>
    <path id="Tracé_364" d="M69.036,81.137l-12.42,9.937L41.5,72.5,54,62.5Z" fill="#333" stroke="#333" stroke-linecap="round" stroke-width="1"/>
    <ellipse id="Ellipse_26" cx="1.177" cy="0.677" rx="1.177" ry="0.677" transform="matrix(0.811, -0.585, 0.585, 0.811, 50.823, 37.647)" fill="#fff"/>
    <ellipse id="Ellipse_27" cx="1.177" cy="0.677" rx="1.177" ry="0.677" transform="matrix(0.811, -0.585, 0.585, 0.811, 50.823, 37.647)" fill="#fff"/>
    <ellipse id="Ellipse_28" cx="1.177" cy="0.677" rx="1.177" ry="0.677" transform="matrix(0.811, -0.585, 0.585, 0.811, 50.823, 37.647)" fill="#fff"/>
    <circle id="Ellipse_29" cx="1.322" cy="1.322" r="1.322" transform="matrix(0.811, -0.585, 0.585, 0.811, 50.854, 67.167)" fill="none" stroke="#fff" stroke-width="1"/>
    <ellipse id="Ellipse_30" cx="0.392" cy="0.957" rx="0.392" ry="0.957" transform="matrix(0.811, -0.585, 0.585, 0.811, 43, 73.46)" fill="#fff"/>
    <ellipse id="Ellipse_31" cx="0.392" cy="0.957" rx="0.392" ry="0.957" transform="matrix(0.811, -0.585, 0.585, 0.811, 43, 73.46)" fill="#fff"/>
    <ellipse id="Ellipse_32" cx="0.392" cy="0.957" rx="0.392" ry="0.957" transform="matrix(0.811, -0.585, 0.585, 0.811, 43, 73.46)" fill="#fff"/>
    <path id="Tracé_365" d="M45.2,60.158a1.012,1.012,0,0,1-.01.254,1.255,1.255,0,0,1-.077.139l-.205-.244.052-.042.206-.172a.687.687,0,0,1,.035.065Zm.371-.363,0,0,.016,1.183,0,0q-.039.072-.085.14l-.335.278a1.52,1.52,0,0,0,.366-.448,1.45,1.45,0,0,0,.143-.394.874.874,0,0,0,.052-.22.786.786,0,0,0-.106-.458l-.03-.05-.01-.019-.007-.01ZM45.484,61.779Zm.343-.369a1.838,1.838,0,0,0,.141-.224l.055.03Z"/>
    <path id="Tracé_366" d="M45.2,60.158a1.012,1.012,0,0,1-.01.254,1.255,1.255,0,0,1-.077.139l-.205-.244.052-.042.206-.172a.687.687,0,0,1,.035.065Zm.371-.363,0,0,.016,1.183,0,0q-.039.072-.085.14l-.335.278a1.52,1.52,0,0,0,.366-.448,1.45,1.45,0,0,0,.143-.394.874.874,0,0,0,.052-.22.786.786,0,0,0-.106-.458l-.03-.05-.01-.019-.007-.01ZM45.484,61.779Zm.343-.369a1.838,1.838,0,0,0,.141-.224l.055.03Z" fill="none" stroke="#000" stroke-width="1"/>
    <path id="Tracé_367" d="M45.2,60.158a1.012,1.012,0,0,1-.01.254,1.255,1.255,0,0,1-.077.139l-.205-.244.052-.042.206-.172a.687.687,0,0,1,.035.065Zm.371-.363,0,0,.016,1.183,0,0q-.039.072-.085.14l-.335.278a1.52,1.52,0,0,0,.366-.448,1.45,1.45,0,0,0,.143-.394.874.874,0,0,0,.052-.22.786.786,0,0,0-.106-.458l-.03-.05-.01-.019-.007-.01ZM45.484,61.779Zm.343-.369a1.838,1.838,0,0,0,.141-.224l.055.03Z" fill="none" stroke="#fff" stroke-width="1"/>
    <path id="Tracé_368" d="M8.506,28.81l3.215,4.122a.866.866,0,0,0,.1.1c.554.5,1.758,1.141,3.092-.385" fill="none" stroke="#000" stroke-linecap="round" stroke-width="2"/>
  </g>
</svg>
